<svg width="207" height="207" viewBox="0 0 207 207" fill="none" xmlns="http://www.w3.org/2000/svg">
<path fill-rule="evenodd" clip-rule="evenodd" d="M152 39.5C152 61.3152 130.062 79 103 79C75.938 79 54 61.3152 54 39.5C54 17.6848 75.938 0 103 0C130.062 0 152 17.6848 152 39.5ZM102.979 206.175C98.7793 206.175 94.5801 206.102 90.3809 205.955C86.2305 205.809 82.0557 205.613 77.8564 205.369C69.458 204.832 61.4502 203.831 53.833 202.366C46.2158 200.95 39.1357 199.021 32.5928 196.58C26.001 194.188 20.3125 191.062 15.5273 187.205C10.6934 183.396 6.88477 178.831 4.10156 173.509C1.36719 168.187 0 161.937 0 154.759C0 147.581 1.3916 141.331 4.1748 136.009C6.90918 130.687 10.6689 126.121 15.4541 122.312C20.2881 118.504 26.001 115.379 32.5928 112.938C39.2334 110.496 46.3135 108.543 53.833 107.078C61.4502 105.662 69.4336 104.686 77.7832 104.148C86.1816 103.611 94.5801 103.343 102.979 103.343C107.178 103.343 111.377 103.416 115.576 103.562C119.775 103.709 123.975 103.904 128.174 104.148C136.523 104.686 144.507 105.687 152.124 107.151C159.79 108.567 166.919 110.496 173.511 112.938C180.005 115.33 185.693 118.455 190.576 122.312C195.361 126.121 199.121 130.687 201.855 136.009C204.639 141.331 206.03 147.581 206.03 154.759C206.03 161.888 204.663 168.138 201.929 173.509C199.146 178.831 195.337 183.396 190.503 187.205C185.718 191.014 180.054 194.139 173.511 196.58C170.239 197.801 166.821 198.899 163.257 199.876C159.692 200.853 156.006 201.683 152.197 202.366C144.531 203.831 136.499 204.832 128.101 205.369C119.751 205.906 111.377 206.175 102.979 206.175Z" fill="white"/>
</svg>
