<svg width="55" height="88" viewBox="0 0 55 88" fill="none" xmlns="http://www.w3.org/2000/svg">
<path fill-rule="evenodd" clip-rule="evenodd" d="M43.9467 48.17C43.995 46.784 44.0192 45.3981 44.0192 44.0121C44.0192 41.2403 43.9306 38.4764 43.7533 35.7207C43.576 32.9488 43.2457 30.2978 42.7622 27.7676C42.5366 26.5106 42.2626 25.2939 41.9403 24.1174C41.618 22.941 41.2554 21.8129 40.8525 20.7331C40.0467 18.5736 39.0153 16.7042 37.7583 15.1249C36.5013 13.5294 34.9945 12.2724 33.2379 11.3538C31.4651 10.4514 29.4023 10.0001 27.0495 10.0001C24.6805 10.0001 22.6177 10.4594 20.8611 11.378C19.1045 12.2805 17.5977 13.5214 16.3406 15.1007C15.0675 16.7123 14.0361 18.5898 13.2464 20.7331C12.4407 22.9087 11.8041 25.2616 11.3367 27.7918C10.8533 30.3058 10.5229 32.9407 10.3456 35.6965C10.265 37.0824 10.2006 38.4684 10.1522 39.8543C10.1039 41.2403 10.0797 42.6262 10.0797 44.0121C10.0797 46.784 10.1683 49.5559 10.3456 52.3278C10.5229 55.0836 10.8452 57.7185 11.3126 60.2325C11.796 62.7143 12.4407 65.0511 13.2464 67.2428C14.0522 69.4184 15.0836 71.304 16.3406 72.8994C17.5977 74.4787 19.1045 75.7196 20.8611 76.6221C22.6177 77.5407 24.6805 78 27.0495 78C29.4185 78 31.4813 77.5488 33.2379 76.6463C34.9945 75.7277 36.5013 74.4707 37.7583 72.8752C39.0314 71.2959 40.0628 69.4184 40.8525 67.2428C41.6583 65.0833 42.2948 62.7466 42.7622 60.2325C43.2457 57.7185 43.576 55.0755 43.7533 52.3036C43.8339 50.9177 43.8984 49.5398 43.9467 48.17ZM26.821 57.8192C35.0237 57.8192 41.6732 51.5391 41.6732 43.7922C41.6732 36.0452 35.0237 29.7651 26.821 29.7651C18.6184 29.7651 11.9689 36.0452 11.9689 43.7922C11.9689 51.5391 18.6184 57.8192 26.821 57.8192Z" fill="white" fill-opacity="0.85"/>
</svg>
