<svg width="413" height="206" viewBox="0 0 413 206" fill="none" xmlns="http://www.w3.org/2000/svg">
<path fill-rule="evenodd" clip-rule="evenodd" d="M180.762 205.225C189.16 205.518 197.559 205.664 205.957 205.664C222.754 205.664 239.502 205.127 256.201 204.053C272.998 202.979 289.062 200.977 304.395 198.047C312.012 196.68 319.385 195.02 326.514 193.066C333.643 191.113 340.479 188.916 347.021 186.475C360.107 181.592 371.436 175.342 381.006 167.725C390.674 160.107 398.291 150.977 403.857 140.332C409.326 129.59 412.061 117.09 412.061 102.832C412.061 88.4766 409.277 75.9766 403.711 65.332C398.242 54.6875 390.723 45.5566 381.152 37.9395C371.387 30.2246 360.01 23.9746 347.021 19.1895C333.838 14.3066 319.58 10.4492 304.248 7.61719C289.014 4.6875 273.047 2.68555 256.348 1.61133C247.949 1.12305 239.551 0.732422 231.152 0.439453C222.754 0.146484 214.355 0 205.957 0C189.16 0 172.363 0.537109 155.566 1.61133C138.867 2.68555 122.9 4.63867 107.666 7.4707C92.627 10.4004 78.4668 14.3066 65.1855 19.1895C52.002 24.0723 40.5762 30.3223 30.9082 37.9395C21.3379 45.5566 13.8184 54.6875 8.34961 65.332C2.7832 75.9766 0 88.4766 0 102.832C0 117.188 2.73438 129.688 8.20312 140.332C13.7695 150.977 21.3867 160.107 31.0547 167.725C40.625 175.439 52.002 181.689 65.1855 186.475C78.2715 191.357 92.4316 195.215 107.666 198.047C122.9 200.977 138.916 202.979 155.713 204.053C164.111 204.541 172.461 204.932 180.762 205.225ZM206.568 192.314C256.274 192.314 296.568 152.02 296.568 102.314C296.568 52.6088 256.274 12.3145 206.568 12.3145C156.863 12.3145 116.568 52.6088 116.568 102.314C116.568 152.02 156.863 192.314 206.568 192.314Z" fill="#FF6C03"/>
<path d="M202.531 116.309C200.741 116.309 199.097 115.771 197.6 114.697C196.102 113.623 195.354 112.093 195.354 110.107C195.354 108.35 195.858 106.803 196.867 105.469C197.844 104.134 199.081 102.865 200.578 101.66C202.076 100.423 203.703 99.2513 205.461 98.1445C208.163 96.4193 210.523 94.5638 212.541 92.5781C214.559 90.5924 215.568 88.2975 215.568 85.6934C215.568 83.3822 214.868 81.4941 213.469 80.0293C212.069 78.5645 210.214 77.4089 207.902 76.5625C205.591 75.7161 202.922 75.1465 199.895 74.8535C196.867 74.528 193.726 74.3652 190.471 74.3652C188.876 74.3652 186.825 74.4141 184.318 74.5117C181.812 74.6094 179.322 74.7396 176.848 74.9023C174.406 75.0651 172.421 75.2441 170.891 75.4395C175.025 75.6022 178.459 76.0254 181.193 76.709C183.96 77.36 186.174 78.1738 187.834 79.1504C189.462 80.127 190.601 81.2337 191.252 82.4707C191.936 83.7077 192.277 84.9772 192.277 86.2793C192.277 88.0371 191.659 89.6159 190.422 91.0156C189.185 92.4154 187.508 93.6035 185.393 94.5801C180.998 96.6309 175.48 97.6562 168.84 97.6562C165.812 97.6562 162.85 97.4121 159.953 96.9238C157.089 96.403 154.549 95.6055 152.336 94.5312C150.09 93.457 148.283 92.0898 146.916 90.4297C145.549 88.7695 144.865 86.7676 144.865 84.4238C144.865 82.4707 145.695 80.6966 147.355 79.1016C149.016 77.5065 151.294 76.0905 154.191 74.8535C157.121 73.6165 160.555 72.5423 164.494 71.6309C170.256 70.3288 176.669 69.3522 183.732 68.7012C190.829 68.0501 198.365 67.7246 206.34 67.7246C208.326 67.7246 210.686 67.7409 213.42 67.7734C216.154 67.806 219.068 67.9036 222.16 68.0664C225.253 68.2292 228.443 68.4733 231.73 68.7988C235.051 69.1243 238.29 69.5801 241.447 70.166C244.572 70.7845 247.535 71.5495 250.334 72.4609C253.166 73.3398 255.624 74.4141 257.707 75.6836C259.823 76.9857 261.483 78.5156 262.688 80.2734C263.924 81.9987 264.543 84.0007 264.543 86.2793C264.543 88.8835 263.892 90.9993 262.59 92.627C261.288 94.2871 259.481 95.7031 257.17 96.875C254.859 98.0143 252.124 98.9909 248.967 99.8047L238.713 102.393C235.002 103.304 231.096 104.362 226.994 105.566C222.925 106.738 218.824 108.252 214.689 110.107C213.257 110.726 212.167 111.426 211.418 112.207C210.702 112.988 210.083 113.656 209.562 114.209C208.977 114.893 208.146 115.413 207.072 115.771C206.031 116.13 204.517 116.309 202.531 116.309ZM204.338 149.512C201.245 149.512 198.348 149.154 195.646 148.438C192.977 147.721 190.633 146.761 188.615 145.557C186.63 144.32 185.035 142.904 183.83 141.309C182.658 139.681 182.072 137.939 182.072 136.084C182.072 134.229 182.658 132.471 183.83 130.811C185.035 129.15 186.63 127.718 188.615 126.514C190.633 125.277 192.977 124.316 195.646 123.633C198.348 122.917 201.245 122.559 204.338 122.559C207.398 122.559 210.279 122.917 212.98 123.633C215.715 124.316 218.091 125.277 220.109 126.514C222.128 127.718 223.723 129.15 224.895 130.811C226.066 132.471 226.652 134.229 226.652 136.084C226.652 137.939 226.066 139.681 224.895 141.309C223.723 142.904 222.128 144.32 220.109 145.557C218.091 146.761 215.715 147.721 212.98 148.438C210.279 149.154 207.398 149.512 204.338 149.512Z" fill="#FF6C03"/>
</svg>
