<svg width="20" height="37" viewBox="0 0 20 37" fill="none" xmlns="http://www.w3.org/2000/svg">
<path fill-rule="evenodd" clip-rule="evenodd" d="M19.0654 20.7689C19.0917 20.0148 19.1048 19.2607 19.1048 18.5066C19.1048 16.9983 19.0566 15.4945 18.9601 13.995C18.8637 12.4868 18.6839 11.0443 18.4208 9.66761C18.2981 8.98365 18.149 8.3216 17.9736 7.68148C17.7983 7.04136 17.601 6.42754 17.3817 5.84003C16.9433 4.66501 16.3821 3.64783 15.6981 2.78848C15.0142 1.92037 14.1943 1.2364 13.2385 0.73658C12.2739 0.245527 11.1515 0 9.87125 0C8.58224 0 7.45983 0.249911 6.50403 0.749733C5.54823 1.24079 4.72835 1.91599 4.04438 2.77533C3.35164 3.65221 2.79044 4.67378 2.36077 5.84003C1.92233 7.02382 1.57596 8.30406 1.32166 9.68077C1.0586 11.0487 0.878838 12.4824 0.782381 13.9819C0.738537 14.736 0.703461 15.4901 0.677155 16.2442C0.650849 16.9983 0.637695 17.7525 0.637695 18.5066C0.637695 20.0148 0.685924 21.523 0.782381 23.0313C0.878838 24.5307 1.05421 25.9644 1.30851 27.3324C1.57157 28.6828 1.92233 29.9543 2.36077 31.1468C2.79921 32.3306 3.36041 33.3566 4.04438 34.2247C4.72835 35.084 5.54823 35.7592 6.50403 36.2503C7.45983 36.7501 8.58224 37 9.87125 37C11.1603 37 12.2827 36.7545 13.2385 36.2634C14.1943 35.7636 15.0142 35.0796 15.6981 34.2115C16.3909 33.3522 16.9521 32.3306 17.3817 31.1468C17.8202 29.9718 18.1665 28.7003 18.4208 27.3324C18.6839 25.9644 18.8637 24.5264 18.9601 23.0181C19.004 22.264 19.039 21.5143 19.0654 20.7689ZM9.86471 26.0191C14.3279 26.0191 17.946 22.602 17.946 18.3867C17.946 14.1715 14.3279 10.7544 9.86471 10.7544C5.40151 10.7544 1.78337 14.1715 1.78337 18.3867C1.78337 22.602 5.40151 26.0191 9.86471 26.0191Z" fill="white"/>
</svg>
