<svg width="31" height="63" viewBox="0 0 31 63" fill="none" xmlns="http://www.w3.org/2000/svg">
<path fill-rule="evenodd" clip-rule="evenodd" d="M30.898 34.8235C30.9421 33.5591 30.9642 32.2946 30.9642 31.0302C30.9642 28.5013 30.8833 25.9798 30.7216 23.4656C30.5598 20.9367 30.2584 18.5181 29.8173 16.2097C29.6115 15.0629 29.3615 13.9529 29.0675 12.8796C28.7734 11.8062 28.4426 10.7771 28.075 9.79196C27.3399 7.82178 26.3989 6.11625 25.2521 4.67538C24.1053 3.2198 22.7306 2.07298 21.128 1.23492C19.5107 0.411558 17.6287 -0.00012207 15.4821 -0.00012207C13.3208 -0.00012207 11.4388 0.418909 9.83619 1.25697C8.23358 2.08033 6.85887 3.21245 5.71205 4.65332C4.55053 6.12361 3.60954 7.83648 2.88911 9.79196C2.15396 11.7768 1.5732 13.9235 1.14682 16.2318C0.705736 18.5254 0.404328 20.9294 0.242597 23.4435C0.169083 24.708 0.110272 25.9724 0.0661631 27.2369C0.0220546 28.5013 0 29.7658 0 31.0302C0 33.5591 0.0808659 36.088 0.242597 38.6169C0.404328 41.131 0.698385 43.535 1.12477 45.8286C1.56585 48.0928 2.15396 50.2247 2.88911 52.2243C3.62425 54.2092 4.56523 55.9294 5.71205 57.385C6.85887 58.8259 8.23358 59.958 9.83619 60.7814C11.4388 61.6194 13.3208 62.0385 15.4821 62.0385C17.6434 62.0385 19.5254 61.6268 21.128 60.8034C22.7306 59.9654 24.1053 58.8185 25.2521 57.363C26.4136 55.9221 27.3546 54.2092 28.075 52.2243C28.8102 50.2541 29.391 48.1222 29.8173 45.8286C30.2584 43.535 30.5598 41.1237 30.7216 38.5948C30.7951 37.3304 30.8539 36.0733 30.898 34.8235ZM2.56327 31.9115C3.1449 38.4729 8.96798 43.6269 16.0656 43.6269C23.5492 43.6269 29.6158 37.8973 29.6158 30.8295C29.6158 23.7618 23.5492 18.0322 16.0656 18.0322C8.65034 18.0322 2.62624 23.6578 2.51703 30.6366C2.50043 30.7998 2.49213 30.9678 2.49213 31.1405C2.49213 31.4093 2.51584 31.6664 2.56327 31.9115Z" fill="white" fill-opacity="0.85"/>
</svg>
